<svg width="512" height="512" viewBox="0 0 512 512" fill="none" xmlns="http://www.w3.org/2000/svg">
<g clip-path="url(#clip0_201_14)">
<circle cx="256" cy="256" r="250" fill="white"/>
<path fill-rule="evenodd" clip-rule="evenodd" d="M256 512C397.385 512 512 397.385 512 256C512 114.615 397.385 0 256 0C114.615 0 0 114.615 0 256C0 397.385 114.615 512 256 512ZM224.08 71.7903C238.769 67.9502 255.106 69.6455 268.359 78.836C278.847 86.1094 286.691 97.5822 290.379 113.097C304.562 107.022 321.764 108.842 334.337 116.097C342.922 121.051 350.139 128.946 352.811 139.561C354.775 147.362 354.098 155.896 350.601 164.806C360.57 167.402 369.935 173.171 376.855 182.309C383.454 191.023 387.516 202.378 388.126 216.121C400.149 216.302 410.783 221.232 419.088 228.791C429.597 238.357 436.513 252.187 438.609 266.606C440.714 281.086 438.031 296.774 428.478 309.707C422.09 318.355 412.931 325.36 400.92 329.932C405.141 334.564 408.418 340.245 409.918 346.533C411.703 354.016 410.922 362.233 406.402 370.074C405.674 371.338 404.857 372.577 403.953 373.788H448.507C453.24 373.788 457.067 377.632 457.067 382.361C457.067 387.09 453.24 390.933 448.507 390.933H63.4933C58.7605 390.933 54.9336 387.09 54.9336 382.361C54.9336 377.632 58.7604 373.788 63.4933 373.788H108.937C104.245 368.657 100.144 362.784 97.7647 356.434C94.9082 348.81 94.4215 340.11 98.8344 331.624C100.837 327.773 103.708 324.244 107.408 321.023C98.3508 316.221 91.6577 309.712 87.3407 301.961C80.675 289.993 80.3393 276.275 83.9242 263.832C89.7907 243.469 106.96 224.136 129.267 218.556C126.183 212.34 123.375 205.648 121.246 198.877C117.792 187.893 115.831 175.787 118.258 164.973C120.841 153.464 128.299 144.064 141.743 139.636C151.792 136.325 164.785 135.912 181.088 138.564C178.666 123.648 181.354 110.276 187.633 99.2962C195.723 85.149 209.393 75.6303 224.08 71.7903Z" fill="url(#paint0_linear_201_14)"/>
<path fill-rule="evenodd" clip-rule="evenodd" d="M271.635 165.333H249.182V212.71L233.362 234.811L226.128 229.978L212.644 177.426L190.9 183.03L206.518 243.901L244.774 269.46V373.329H267.227V257.436L252.048 247.295L271.635 219.932V165.333ZM349.07 240.735L327.454 234.654L314.332 281.505L308.345 255.704L286.477 260.801L301.586 325.913L282.947 373.329H307.076L322.646 333.718L372.935 294.011L359.048 276.347L333.429 296.576L349.07 240.735ZM178.424 305.436L156.439 273.304L137.927 286.025L164.165 324.372H136.044V346.851H179.969L200.519 373.329H228.953L197.25 332.48L204.677 280.377L182.45 277.195L178.424 305.436Z" fill="url(#paint1_linear_201_14)"/>
</g>
<defs>
<linearGradient id="paint0_linear_201_14" x1="0" y1="256" x2="512" y2="256" gradientUnits="userSpaceOnUse">
<stop stop-color="#15803D"/>
<stop offset="1" stop-color="#16A34A"/>
</linearGradient>
<linearGradient id="paint1_linear_201_14" x1="5.54258e-05" y1="247.541" x2="512" y2="247.541" gradientUnits="userSpaceOnUse">
<stop stop-color="#15803D"/>
<stop offset="1" stop-color="#16A34A"/>
</linearGradient>
<clipPath id="clip0_201_14">
<rect width="512" height="512" fill="white"/>
</clipPath>
</defs>
</svg>
